<svg width="172" height="14" viewBox="0 0 172 14" fill="none" xmlns="http://www.w3.org/2000/svg">
<path d="M8.542 8.536V13H5.626V8.5L0.748 0.399999H3.844L7.21 5.998L10.576 0.399999H13.438L8.542 8.536ZM20.2151 13.216C18.9071 13.216 17.7251 12.934 16.6691 12.37C15.6251 11.806 14.8031 11.032 14.2031 10.048C13.6151 9.052 13.3211 7.936 13.3211 6.7C13.3211 5.464 13.6151 4.354 14.2031 3.37C14.8031 2.374 15.6251 1.594 16.6691 1.03C17.7251 0.466 18.9071 0.184 20.2151 0.184C21.5231 0.184 22.6991 0.466 23.7431 1.03C24.7871 1.594 25.6091 2.374 26.2091 3.37C26.8091 4.354 27.1091 5.464 27.1091 6.7C27.1091 7.936 26.8091 9.052 26.2091 10.048C25.6091 11.032 24.7871 11.806 23.7431 12.37C22.6991 12.934 21.5231 13.216 20.2151 13.216ZM20.2151 10.732C20.9591 10.732 21.6311 10.564 22.2311 10.228C22.8311 9.88 23.2991 9.4 23.6351 8.788C23.9831 8.176 24.1571 7.48 24.1571 6.7C24.1571 5.92 23.9831 5.224 23.6351 4.612C23.2991 4 22.8311 3.526 22.2311 3.19C21.6311 2.842 20.9591 2.668 20.2151 2.668C19.4711 2.668 18.7991 2.842 18.1991 3.19C17.5991 3.526 17.1251 4 16.7771 4.612C16.4411 5.224 16.2731 5.92 16.2731 6.7C16.2731 7.48 16.4411 8.176 16.7771 8.788C17.1251 9.4 17.5991 9.88 18.1991 10.228C18.7991 10.564 19.4711 10.732 20.2151 10.732ZM34.8986 13.216C33.0986 13.216 31.6946 12.718 30.6866 11.722C29.6906 10.726 29.1926 9.304 29.1926 7.456V0.399999H32.1086V7.348C32.1086 9.604 33.0446 10.732 34.9166 10.732C35.8286 10.732 36.5246 10.462 37.0046 9.922C37.4846 9.37 37.7246 8.512 37.7246 7.348V0.399999H40.6046V7.456C40.6046 9.304 40.1006 10.726 39.0926 11.722C38.0966 12.718 36.6986 13.216 34.8986 13.216ZM51.5142 13L49.0842 9.49H48.9402H46.4022V13H43.4862V0.399999H48.9402C50.0562 0.399999 51.0222 0.585999 51.8382 0.957999C52.6662 1.33 53.3022 1.858 53.7462 2.542C54.1902 3.226 54.4122 4.036 54.4122 4.972C54.4122 5.908 54.1842 6.718 53.7282 7.402C53.2842 8.074 52.6482 8.59 51.8202 8.95L54.6462 13H51.5142ZM51.4602 4.972C51.4602 4.264 51.2322 3.724 50.7762 3.352C50.3202 2.968 49.6542 2.776 48.7782 2.776H46.4022V7.168H48.7782C49.6542 7.168 50.3202 6.976 50.7762 6.592C51.2322 6.208 51.4602 5.668 51.4602 4.972ZM61.8202 0.399999H64.7362V10.624H71.0542V13H61.8202V0.399999ZM78.5745 13.216C77.2665 13.216 76.0845 12.934 75.0285 12.37C73.9845 11.806 73.1625 11.032 72.5625 10.048C71.9745 9.052 71.6805 7.936 71.6805 6.7C71.6805 5.464 71.9745 4.354 72.5625 3.37C73.1625 2.374 73.9845 1.594 75.0285 1.03C76.0845 0.466 77.2665 0.184 78.5745 0.184C79.8825 0.184 81.0585 0.466 82.1025 1.03C83.1465 1.594 83.9685 2.374 84.5685 3.37C85.1685 4.354 85.4685 5.464 85.4685 6.7C85.4685 7.936 85.1685 9.052 84.5685 10.048C83.9685 11.032 83.1465 11.806 82.1025 12.37C81.0585 12.934 79.8825 13.216 78.5745 13.216ZM78.5745 10.732C79.3185 10.732 79.9905 10.564 80.5905 10.228C81.1905 9.88 81.6585 9.4 81.9945 8.788C82.3425 8.176 82.5165 7.48 82.5165 6.7C82.5165 5.92 82.3425 5.224 81.9945 4.612C81.6585 4 81.1905 3.526 80.5905 3.19C79.9905 2.842 79.3185 2.668 78.5745 2.668C77.8305 2.668 77.1585 2.842 76.5585 3.19C75.9585 3.526 75.4845 4 75.1365 4.612C74.8005 5.224 74.6325 5.92 74.6325 6.7C74.6325 7.48 74.8005 8.176 75.1365 8.788C75.4845 9.4 75.9585 9.88 76.5585 10.228C77.1585 10.564 77.8305 10.732 78.5745 10.732ZM96.174 6.502H98.838V11.614C98.154 12.13 97.362 12.526 96.462 12.802C95.562 13.078 94.656 13.216 93.744 13.216C92.436 13.216 91.26 12.94 90.216 12.388C89.172 11.824 88.35 11.05 87.75 10.066C87.162 9.07 86.868 7.948 86.868 6.7C86.868 5.452 87.162 4.336 87.75 3.352C88.35 2.356 89.178 1.582 90.234 1.03C91.29 0.466 92.478 0.184 93.798 0.184C94.902 0.184 95.904 0.37 96.804 0.741999C97.704 1.114 98.46 1.654 99.072 2.362L97.2 4.09C96.3 3.142 95.214 2.668 93.942 2.668C93.138 2.668 92.424 2.836 91.8 3.172C91.176 3.508 90.69 3.982 90.342 4.594C89.994 5.206 89.82 5.908 89.82 6.7C89.82 7.48 89.994 8.176 90.342 8.788C90.69 9.4 91.17 9.88 91.782 10.228C92.406 10.564 93.114 10.732 93.906 10.732C94.746 10.732 95.502 10.552 96.174 10.192V6.502ZM107.649 13.216C106.341 13.216 105.159 12.934 104.103 12.37C103.059 11.806 102.237 11.032 101.637 10.048C101.049 9.052 100.755 7.936 100.755 6.7C100.755 5.464 101.049 4.354 101.637 3.37C102.237 2.374 103.059 1.594 104.103 1.03C105.159 0.466 106.341 0.184 107.649 0.184C108.957 0.184 110.133 0.466 111.177 1.03C112.221 1.594 113.043 2.374 113.643 3.37C114.243 4.354 114.543 5.464 114.543 6.7C114.543 7.936 114.243 9.052 113.643 10.048C113.043 11.032 112.221 11.806 111.177 12.37C110.133 12.934 108.957 13.216 107.649 13.216ZM107.649 10.732C108.393 10.732 109.065 10.564 109.665 10.228C110.265 9.88 110.733 9.4 111.069 8.788C111.417 8.176 111.591 7.48 111.591 6.7C111.591 5.92 111.417 5.224 111.069 4.612C110.733 4 110.265 3.526 109.665 3.19C109.065 2.842 108.393 2.668 107.649 2.668C106.905 2.668 106.233 2.842 105.633 3.19C105.033 3.526 104.559 4 104.211 4.612C103.875 5.224 103.707 5.92 103.707 6.7C103.707 7.48 103.875 8.176 104.211 8.788C104.559 9.4 105.033 9.88 105.633 10.228C106.233 10.564 106.905 10.732 107.649 10.732ZM133.388 0.399999V13H130.472V7.834H124.748V13H121.832V0.399999H124.748V5.368H130.472V0.399999H133.388ZM146.125 10.66V13H136.369V0.399999H145.891V2.74H139.267V5.476H145.117V7.744H139.267V10.66H146.125ZM156.473 13L154.043 9.49H153.899H151.361V13H148.445V0.399999H153.899C155.015 0.399999 155.981 0.585999 156.797 0.957999C157.625 1.33 158.261 1.858 158.705 2.542C159.149 3.226 159.371 4.036 159.371 4.972C159.371 5.908 159.143 6.718 158.687 7.402C158.243 8.074 157.607 8.59 156.779 8.95L159.605 13H156.473ZM156.419 4.972C156.419 4.264 156.191 3.724 155.735 3.352C155.279 2.968 154.613 2.776 153.737 2.776H151.361V7.168H153.737C154.613 7.168 155.279 6.976 155.735 6.592C156.191 6.208 156.419 5.668 156.419 4.972ZM171.438 10.66V13H161.682V0.399999H171.204V2.74H164.58V5.476H170.43V7.744H164.58V10.66H171.438Z" fill="black"/>
<a href="https://www.figma.com/file/dms5Vr9yGfK445F3mncTz9">
<rect fill="black" fill-opacity="0" y="0.0289993" width="171.266" height="21.942"/>
</a>
</svg>
